<?xml version="1.0" encoding="UTF-8"?>
<!DOCTYPE svg PUBLIC "-//W3C//DTD SVG 1.1//EN" "http://www.w3.org/Graphics/SVG/1.1/DTD/svg11.dtd">
<!-- Creator: CorelDRAW -->
<svg xmlns="http://www.w3.org/2000/svg" xml:space="preserve" width="6.82666in" height="6.82666in" style="shape-rendering:geometricPrecision; text-rendering:geometricPrecision; image-rendering:optimizeQuality; fill-rule:evenodd; clip-rule:evenodd"
viewBox="0 0 6.82666 6.82666"
 xmlns:xlink="http://www.w3.org/1999/xlink">
 <defs>
  <style type="text/css">
   <![CDATA[
    .fil2 {fill:none}
    .fil1 {fill:#43A047}
    .fil0 {fill:#81C784}
    .fil3 {fill:#FFD54F;fill-rule:nonzero}
   ]]>
  </style>
   <clipPath id="id0">
    <path d="M3.41333 0c1.88513,0 3.41333,1.5282 3.41333,3.41333 0,1.88513 -1.5282,3.41333 -3.41333,3.41333 -1.88513,0 -3.41333,-1.5282 -3.41333,-3.41333 0,-1.88513 1.5282,-3.41333 3.41333,-3.41333z"/>
   </clipPath>
 </defs>
 <g id="Layer_x0020_1">
  <metadata id="CorelCorpID_0Corel-Layer"/>
  <path class="fil0" d="M3.41333 0c1.88513,0 3.41333,1.5282 3.41333,3.41333 0,1.88513 -1.5282,3.41333 -3.41333,3.41333 -1.88513,0 -3.41333,-1.5282 -3.41333,-3.41333 0,-1.88513 1.5282,-3.41333 3.41333,-3.41333z"/>
  <g style="clip-path:url(#id0)">
   <g id="_332353720">
    <g>
     <polygon id="_3314346001" class="fil1" points="2.65214,2.08634 6.43841,5.87261 6.43841,6.01552 2.65214,2.22925 "/>
     <polygon id="_331434504" class="fil1" points="2.65214,2.22925 6.43841,6.01552 6.43841,6.43874 2.65214,2.65246 "/>
     <polygon id="_331434192" class="fil1" points="5.02029,2.82096 8.80656,6.60723 6.43841,6.60723 2.65214,2.82096 "/>
     <polygon id="_331434216" class="fil1" points="2.65214,2.82096 6.43841,6.60723 6.43841,6.94632 2.65214,3.16005 "/>
     <polygon id="_331434384" class="fil1" points="2.65214,3.16005 6.43841,6.94632 6.43841,7.08924 2.65214,3.30296 "/>
     <polygon id="_331434264" class="fil1" points="2.65214,3.30296 6.43841,7.08924 6.31319,7.02033 2.52693,3.23406 "/>
     <polygon id="_331434456" class="fil1" points="2.52693,3.23406 6.31319,7.02033 5.46742,6.55493 1.68115,2.76866 "/>
     <polygon id="_331434312" class="fil1" points="1.68115,2.76866 5.46742,6.55493 5.33293,6.48092 1.54667,2.69465 "/>
     <polygon id="_331435248" class="fil1" points="5.18945,3.66706 8.97572,7.45333 8.80656,7.45333 5.02029,3.66706 "/>
     <polygon id="_331435152" class="fil1" points="5.18945,2.73671 8.97572,6.52298 8.97572,7.45333 5.18945,3.66706 "/>
     <polygon id="_331435488" class="fil1" points="5.18945,2.65246 8.97572,6.43873 8.97572,6.52298 5.18945,2.73671 "/>
     <polygon id="_331435104" class="fil1" points="5.28,4.13201 9.06626,7.91828 8.93178,7.99228 5.14551,4.20601 "/>
     <polygon id="_331434864" class="fil1" points="1.80637,3.15959 5.59264,6.94587 5.59264,7.79198 1.80637,4.0057 "/>
     <polygon id="_331434888" class="fil1" points="4.17452,4.17419 7.96079,7.96046 5.50806,7.96047 1.72179,4.1742 "/>
     <polygon id="_331435416" class="fil1" points="5.14551,4.20601 8.93178,7.99228 8.086,8.45769 4.29974,4.67141 "/>
     <polygon id="_331435128" class="fil1" points="1.72179,4.1742 5.50806,7.96047 5.42348,7.96047 1.63721,4.1742 "/>
     <polygon id="_331435320" class="fil1" points="4.29974,4.67141 8.086,8.45769 7.96079,8.52659 4.17452,4.74031 "/>
    </g>
    <path id="_332353984" class="fil1" d="M5.18945 2.73671l0 0.930354 -0.169157 0 0 -0.846106 -2.36815 3.93701e-006 0 0.339091 0 0.142913 -0.125217 -0.0689055 -0.845772 -0.465402 -0.134488 -0.0740079 0.134488 -0.0740039 0.845772 -0.465402 0.125217 -0.0689016 0 0.142909 0 0.423213 2.45273 -3.93701e-006 0.0845787 0 0 0.084248zm-0.889713 0.85589l0.845772 0.465402 0.134488 0.0740079 -0.134488 0.0740039 -0.845772 0.465402 -0.125217 0.0689016 0 -0.142909 0 -0.423213 -2.45273 7.87402e-006 -0.0845787 0 0 -0.084248 0 -0.930358 0.169157 0 0 0.84611 2.36815 -7.87402e-006 0 -0.339091 0 -0.142909 0.125217 0.0689016z"/>
   </g>
  </g>
  <path class="fil2" d="M3.41333 0c1.88513,0 3.41333,1.5282 3.41333,3.41333 0,1.88513 -1.5282,3.41333 -3.41333,3.41333 -1.88513,0 -3.41333,-1.5282 -3.41333,-3.41333 0,-1.88513 1.5282,-3.41333 3.41333,-3.41333z"/>
  <polygon class="fil3" points="5.02029,3.66706 5.02029,2.82096 2.55239,2.82096 2.55239,2.65246 5.10487,2.65246 5.18945,2.65246 5.18945,2.73671 5.18945,3.66706 "/>
  <polygon class="fil3" points="1.80637,3.15959 1.80637,4.0057 4.27428,4.0057 4.27428,4.17419 1.72179,4.1742 1.63721,4.1742 1.63721,4.08995 1.63721,3.15959 "/>
  <polygon class="fil3" points="1.68115,2.62065 2.52693,2.15524 2.65214,2.08634 2.65214,2.22925 2.65214,3.16005 2.65214,3.30296 2.52693,3.23406 1.68115,2.76866 1.54667,2.69465 "/>
  <polygon class="fil3" points="5.14551,4.20601 4.29974,4.67141 4.17452,4.74031 4.17452,4.59741 4.17452,3.66661 4.17452,3.5237 4.29974,3.5926 5.14551,4.058 5.28,4.13201 "/>
 </g>
</svg>
